<?xml version="1.0" standalone="no"?>
<!DOCTYPE svg PUBLIC "-//W3C//DTD SVG 20010904//EN"
 "http://www.w3.org/TR/2001/REC-SVG-20010904/DTD/svg10.dtd">
<svg version="1.0" xmlns="http://www.w3.org/2000/svg"
 width="334.000000pt" height="232.000000pt" viewBox="0 0 334.000000 232.000000"
 preserveAspectRatio="xMidYMid meet">

<g transform="translate(0.000000,232.000000) scale(0.100000,-0.100000)"
fill="#000000" stroke="none">
<path d="M1855 2074 c-437 -68 -962 -348 -1310 -698 -217 -218 -333 -416 -360
-612 -15 -112 36 -251 115 -314 38 -30 120 -74 120 -64 0 3 -15 24 -34 45 -45
53 -60 110 -54 206 26 421 766 1027 1475 1209 251 64 452 68 598 13 76 -29
158 -107 176 -167 20 -67 33 -51 26 32 -7 97 -45 182 -104 237 -56 51 -167
103 -254 118 -88 15 -283 12 -394 -5z"/>
<path d="M1612 1695 c-119 -60 -175 -143 -174 -259 0 -65 -3 -74 -39 -128 -54
-80 -70 -78 -141 14 -14 19 -42 42 -61 51 -63 30 -227 15 -246 -22 -25 -48
-80 -342 -96 -513 -4 -38 -10 -68 -15 -68 -14 0 -23 -40 -29 -135 l-6 -90
-120 1 c-108 0 -126 3 -179 27 l-59 27 7 -32 c25 -127 225 -205 455 -179 86
10 112 9 212 -8 193 -33 431 -67 734 -103 161 -19 548 -16 710 6 246 33 429
88 455 136 7 14 11 54 8 105 -2 68 -7 89 -25 112 -13 15 -34 49 -47 74 -38 71
-82 104 -167 124 -164 39 -314 109 -351 165 -14 21 -36 38 -56 44 -28 8 -102
68 -102 82 0 3 22 33 48 68 104 135 152 248 152 355 0 70 -22 132 -57 163 -19
17 -19 16 -32 -56 -19 -114 -115 -291 -204 -374 -28 -26 -57 -21 -57 11 0 11
-17 36 -38 56 -21 20 -65 79 -97 131 -81 134 -150 224 -180 238 -51 24 -127
15 -203 -23z m199 -32 c18 -16 65 -77 104 -138 108 -166 105 -151 38 -170 -31
-9 -78 -27 -104 -40 l-47 -24 -53 40 c-30 22 -82 54 -116 71 -51 25 -71 30
-108 26 -45 -6 -45 -6 -45 26 0 48 46 131 92 168 46 36 126 67 175 68 20 0 43
-10 64 -27z m-185 -308 c38 -19 82 -46 98 -59 30 -25 28 -46 -4 -46 -24 0 -33
-15 -25 -40 8 -26 39 -26 65 0 24 24 47 25 72 3 25 -22 23 -31 -8 -35 -38 -4
-54 -33 -31 -55 12 -12 21 -15 31 -8 68 50 66 50 94 32 32 -19 32 -30 0 -37
-16 -4 -23 -13 -23 -30 0 -33 28 -37 61 -11 31 25 42 25 68 6 18 -14 18 -15
-4 -33 -19 -16 -21 -22 -11 -40 15 -28 29 -28 58 0 23 21 23 21 58 2 33 -18
46 -34 26 -34 -15 0 -22 -32 -10 -46 17 -20 47 -17 54 6 8 24 11 24 65 5 48
-17 98 -19 133 -6 18 7 33 4 62 -12 21 -12 38 -26 37 -31 -2 -22 -98 -49 -178
-50 -77 -1 -85 1 -170 44 -82 42 -259 144 -571 329 -68 40 -123 77 -123 83 0
17 40 77 58 88 28 16 46 12 118 -25z m-439 -31 c12 -7 35 -33 52 -58 17 -24
37 -46 46 -49 43 -17 -20 -57 -90 -57 -48 0 -85 24 -85 58 -1 9 -9 40 -19 69
-12 36 -14 54 -7 57 17 8 79 -4 103 -20z m874 -25 c8 -15 6 -21 -8 -26 -10 -3
-47 -17 -82 -31 -60 -23 -66 -24 -90 -9 -39 24 -36 33 21 55 109 43 140 45
159 11z m-1011 -61 c29 -89 51 -116 106 -128 78 -19 165 16 227 92 40 48 57
47 32 -2 -26 -51 -99 -115 -172 -152 -64 -33 -69 -38 -93 -95 l-26 -61 -39 35
c-22 18 -66 48 -97 66 -32 18 -58 39 -58 47 0 19 34 180 49 238 18 66 41 53
71 -40z m1070 -23 c17 -20 8 -27 -63 -49 -55 -16 -60 -16 -84 -1 -30 20 -24
28 37 49 58 20 94 20 110 1z m-581 -47 c31 -17 88 -50 126 -73 39 -23 125 -75
193 -114 l123 -72 -38 -26 c-80 -54 -145 -117 -191 -188 l-49 -74 -29 91 c-16
51 -29 95 -29 99 0 5 37 35 83 68 45 34 82 65 82 71 0 5 -46 11 -107 12 l-108
3 -34 103 c-19 56 -37 102 -41 102 -4 0 -22 -47 -40 -105 l-33 -105 -109 0
c-65 0 -108 -4 -108 -10 0 -5 35 -35 78 -66 42 -32 80 -60 84 -63 12 -11 -42
-163 -56 -157 -6 2 -37 10 -70 18 -32 7 -60 17 -61 23 -2 5 -13 42 -24 80
l-22 70 25 60 c22 55 29 63 81 89 68 35 154 111 180 160 11 20 24 36 29 36 5
0 34 -14 65 -32z m646 -37 c3 -6 -16 -19 -41 -31 -45 -19 -48 -19 -73 -3 l-26
17 30 12 c35 15 101 18 110 5z m70 -71 c17 -19 16 -20 -18 -36 -34 -16 -37
-16 -61 0 -32 20 -33 34 -3 46 36 14 63 11 82 -10z m-710 -87 l17 -53 64 0
c35 0 64 -4 64 -8 0 -4 -12 -15 -27 -25 -16 -9 -38 -25 -51 -35 l-22 -17 20
-59 c11 -33 18 -61 16 -64 -3 -2 -26 12 -52 32 -26 20 -50 36 -54 36 -4 0 -28
-16 -54 -36 -26 -20 -49 -34 -52 -32 -2 3 3 24 11 48 24 67 20 82 -30 115 -25
17 -45 33 -45 38 0 4 29 7 63 7 l64 0 18 60 c10 33 22 57 25 53 4 -4 15 -32
25 -60z m800 14 c27 -21 3 -30 -45 -17 -22 6 -38 15 -35 20 9 15 58 12 80 -3z
m-1344 -53 c38 -25 78 -58 89 -74 28 -39 60 -111 60 -136 0 -20 0 -20 -122 6
l-123 27 1 54 c1 68 14 169 21 169 3 0 36 -21 74 -46z m1084 -81 l48 -26 -25
-21 c-32 -27 -47 -54 -41 -77 9 -33 60 -44 198 -43 146 2 288 21 448 61 99 25
111 26 135 12 28 -16 72 -73 72 -95 0 -25 -227 -81 -440 -109 -270 -34 -722
-28 -737 11 -8 21 43 108 99 169 45 49 170 145 189 145 4 0 28 -12 54 -27z
m557 -30 c93 -31 94 -31 -82 -63 -92 -17 -166 -23 -279 -24 -167 -1 -188 6
-128 43 29 18 39 19 67 10 54 -19 176 -5 261 29 41 17 76 31 78 31 2 1 39 -11
83 -26z m-1025 -165 c105 -75 104 -93 -5 -67 -42 10 -106 27 -141 37 l-63 18
53 41 c30 22 59 38 64 35 6 -3 47 -32 92 -64z m-563 16 c89 -19 267 -63 396
-96 288 -74 364 -87 555 -95 284 -11 636 30 865 103 45 14 88 23 96 20 71 -27
-169 -97 -476 -138 -129 -17 -217 -21 -405 -22 -277 0 -285 1 -670 99 -198 51
-525 125 -550 125 -3 0 -5 9 -5 20 0 27 6 26 194 -16z m-49 -64 c61 -12 241
-55 400 -95 353 -89 452 -105 666 -105 317 0 630 45 892 127 9 3 17 1 17 -4 0
-13 -114 -47 -264 -78 -66 -14 -161 -39 -211 -56 -184 -62 -184 -62 -395 -56
-317 8 -607 44 -1005 122 -275 54 -255 46 -255 109 0 57 5 69 29 62 9 -3 66
-14 126 -26z"/>
<path d="M2842 1440 c-7 -19 -20 -32 -36 -36 -33 -8 -33 -22 0 -30 16 -4 30
-17 36 -35 12 -36 24 -37 32 -3 4 16 17 29 36 36 17 5 30 14 30 18 0 4 -13 13
-30 18 -19 7 -32 20 -36 36 -8 34 -20 33 -32 -4z"/>
<path d="M2666 1310 c-3 -8 -11 -33 -18 -55 -11 -35 -19 -42 -60 -55 -26 -8
-49 -18 -52 -21 -3 -3 18 -13 47 -22 52 -16 54 -18 71 -72 9 -30 19 -55 21
-55 2 0 11 25 19 55 16 53 17 54 71 71 30 10 52 21 50 24 -3 4 -25 13 -50 19
-40 10 -48 17 -61 49 -31 77 -31 78 -38 62z"/>
<path d="M2891 1078 c-9 -28 -19 -38 -42 -43 -38 -8 -37 -22 1 -30 24 -5 32
-14 37 -36 8 -42 20 -44 33 -5 8 26 18 36 41 41 37 8 37 22 0 30 -21 4 -32 16
-43 43 l-14 37 -13 -37z"/>
</g>
</svg>
